<svg xmlns="http://www.w3.org/2000/svg" viewBox="0 0 96 96" width="200" height="200" role="img" aria-label="Everflow">
  <title>Everflow</title>
  <defs>
    <path id="loop-d" d="M41 20 H55 A21 21 0 0 1 76 41 V55 A21 21 0 0 1 55 76 H41 A21 21 0 0 1 20 55 V41 A21 21 0 0 1 41 20 Z"/>
  </defs>
  <path d="M41 20 H55 A21 21 0 0 1 76 41 V55 A21 21 0 0 1 55 76 H41 A21 21 0 0 1 20 55 V41 A21 21 0 0 1 41 20 Z"
        fill="none" stroke="#fbf8f3" stroke-width="11" stroke-linejoin="round"/>
  <circle r="4" fill="#ff5a3c" opacity="0.32">
    <animateMotion dur="3.4s" repeatCount="indefinite" begin="-3.04s" rotate="auto"><mpath href="#loop-d"/></animateMotion>
  </circle>
  <circle r="6" fill="#ff5a3c" opacity="0.60">
    <animateMotion dur="3.4s" repeatCount="indefinite" begin="-3.18s" rotate="auto"><mpath href="#loop-d"/></animateMotion>
  </circle>
  <circle r="9.5" fill="#ff5a3c">
    <animateMotion dur="3.4s" repeatCount="indefinite" begin="0s" rotate="auto"><mpath href="#loop-d"/></animateMotion>
  </circle>
</svg>
